/vscmnt/brussel_pixiu_data/_data_brussel/112/vsc11236/PredSimResults/SUBJ04mtu3D/weighted-expIG/worker_04.mot
version=1
nRows=10
nColumns=50
inDegrees=yes
endheader
                time	         pelvis_tilt	         pelvis_list	     pelvis_rotation	           pelvis_tx	           pelvis_ty	           pelvis_tz	       hip_flexion_r	     hip_adduction_r	      hip_rotation_r	        knee_angle_r	       ankle_angle_r	         mtp_angle_r	       hip_flexion_l	     hip_adduction_l	      hip_rotation_l	        knee_angle_l	       ankle_angle_l	         mtp_angle_l	    lumbar_extension	      lumbar_bending	     lumbar_rotation	 ercspn_r/activation	 intobl_r/activation	 extobl_r/activation	    abd_r/activation	    add_r/activation	hamstrings_r/activation	bifemsh_r/activation	glut_max_r/activation	iliopsoas_r/activation	rect_fem_r/activation	  vasti_r/activation	gastroc_r/activation	 soleus_r/activation	tib_ant_r/activation	 ercspn_l/activation	 intobl_l/activation	 extobl_l/activation	    abd_l/activation	    add_l/activation	hamstrings_l/activation	bifemsh_l/activation	glut_max_l/activation	iliopsoas_l/activation	rect_fem_l/activation	  vasti_l/activation	gastroc_l/activation	 soleus_l/activation	tib_ant_l/activation	
          1.37361154	         -6.17066918	         -4.77253391	         12.28655337	          1.23625039	          0.88188605	         -0.02158177	         25.49601249	          0.15221074	         -5.15818930	          2.36407256	          5.56090534	          0.21638681	         -7.71485033	         -4.09641891	         15.15050087	         -8.63427090	         12.28885422	         23.86786817	         -2.37758250	          1.78124435	         -1.85274429	          0.09656624	          0.16789195	          0.02135328	          0.02152932	          0.10789574	          0.02944272	          0.01000000	          0.00999999	          0.05553719	          0.01187016	          0.01856036	          0.00999999	          0.00999999	          0.27218193	          0.03867470	          0.00999999	          0.00999999	          0.08433547	          0.00999999	          0.01972299	          0.14332665	          0.07857595	          0.33867894	          0.00999999	          0.00999999	          0.31153474	          0.30020436	          0.01510280	
          1.38734766	         -6.28957345	         -4.65617124	         12.18997332	          1.25145776	          0.87994714	         -0.02052025	         25.16537415	          0.42349193	         -4.04558048	          1.69404651	          5.17205597	          0.22191632	         -7.93261804	         -3.96446723	         14.37499547	         -9.97986907	         12.06781582	         25.58785768	         -2.07877602	          2.08696831	         -2.09803285	          0.07857716	          0.15768257	          0.01737543	          0.01751868	          0.14474366	          0.02761151	          0.01000000	          0.01366109	          0.04519131	          0.01000000	          0.01510280	          0.01811037	          0.01763834	          0.27425350	          0.06581518	          0.00999999	          0.00999999	          0.06862483	          0.02546452	          0.01841735	          0.11662669	          0.06393823	          0.30993390	          0.00999999	          0.00999999	          0.28769113	          0.29400402	          0.01228934	
          1.40108378	         -6.38985558	         -4.53239066	         12.02451231	          1.26706457	          0.87815674	         -0.01937385	         24.70293434	          0.69260300	         -2.95702405	          0.99255887	          4.74797618	          0.21410114	         -8.08781898	         -3.80801810	         13.55506496	        -11.53015890	         11.72021932	         27.35688018	         -1.76159094	          2.40854991	         -2.33206139	          0.06721045	          0.16639383	          0.01413861	          0.02433165	          0.11777973	          0.03244369	          0.05494647	          0.02903639	          0.03677273	          0.00999999	          0.01228934	          0.01473664	          0.01435254	          0.31391075	          0.08444639	          0.00999999	          0.00999999	          0.05584088	          0.04469430	          0.01554408	          0.09490060	          0.05202734	          0.27677854	          0.00999999	          0.00999999	          0.26164298	          0.28042704	          0.00999999	
          1.41481989	         -6.47283341	         -4.40808106	         11.78107655	          1.28286107	          0.87672664	         -0.01812321	         24.11608532	          0.98030458	         -1.94274137	          0.51002934	          4.18696149	          0.19956471	         -8.11318194	         -3.62347121	         12.68877431	        -13.36273653	         11.18298999	         29.16948333	         -1.44698699	          2.75375694	         -2.55167293	          0.07049439	          0.13776843	          0.01150476	          0.05407238	          0.09583884	          0.03647217	          0.04471063	          0.04356685	          0.02992243	          0.00999999	          0.00999999	          0.01199139	          0.01167884	          0.34193712	          0.10655642	          0.00999999	          0.00999999	          0.04543842	          0.04242594	          0.01654134	          0.07722180	          0.04233530	          0.24109238	          0.00999999	          0.00999999	          0.21840988	          0.25984899	          0.00999999	
          1.42855601	         -6.53892238	         -4.28359010	         11.46214893	          1.29867642	          0.87583482	         -0.01678404	         23.45553100	          1.28694569	         -1.01088182	          0.12151243	          3.69404120	          0.18321193	         -7.96832094	         -3.40813749	         11.76370027	        -15.50821225	         10.40371420	         30.96942834	         -1.14827147	          3.12236387	         -2.75344693	          0.06585549	          0.11210390	          0.00999999	          0.07727006	          0.08499474	          0.04129429	          0.03638160	          0.04945754	          0.02434826	          0.00999999	          0.01774194	          0.00999999	          0.00999999	          0.36592780	          0.12447167	          0.00999999	          0.00999999	          0.03697381	          0.04890313	          0.02148193	          0.06283635	          0.03444876	          0.21780514	          0.00999999	          0.00999999	          0.17772285	          0.22338364	          0.00999999	
          1.44229212	         -6.58834618	         -4.15635309	         11.07296494	          1.31438612	          0.87555495	         -0.01537693	         22.74127920	          1.60271924	         -0.15963644	         -0.21459905	          3.33867134	          0.16864483	         -7.63042107	         -3.16155766	         10.76402569	        -17.97716101	          9.37899092	         32.63046823	         -0.87392796	          3.50809063	         -2.93314691	          0.05835060	          0.09122035	          0.00999999	          0.10028239	          0.08290307	          0.04481317	          0.02960417	          0.04576914	          0.01981248	          0.00999999	          0.02303111	          0.00999999	          0.00999999	          0.37641800	          0.13770465	          0.00999999	          0.00999999	          0.03008606	          0.06253420	          0.02698570	          0.05113073	          0.02803139	          0.19747094	          0.00999999	          0.00999999	          0.14461531	          0.18177007	          0.00999999	
          1.45602824	         -6.62171525	         -4.02018756	         10.61901606	          1.32987101	          0.87588774	         -0.01392537	         21.98531912	          1.91163328	          0.61709080	         -0.51047659	          3.13380128	          0.15645467	         -7.08423449	         -2.88421162	          9.67000755	        -20.76892033	          8.15307227	         33.94302117	         -0.63410643	          3.90152895	         -3.08864699	          0.04882604	          0.07422714	          0.00999999	          0.11633913	          0.06745927	          0.04694561	          0.02408928	          0.04008633	          0.01612166	          0.00999999	          0.03270810	          0.00999999	          0.00999999	          0.37340826	          0.14593948	          0.00999999	          0.00999999	          0.02448140	          0.07715251	          0.03364369	          0.04160572	          0.02280949	          0.17676371	          0.00999999	          0.00999999	          0.11767529	          0.14790858	          0.00999999	
          1.46976435	         -6.64026655	         -3.86120084	         10.10551115	          1.34502936	          0.87682298	         -0.01245246	         21.18844165	          2.19172445	          1.32671530	         -0.75572181	          3.07089936	          0.14817055	         -6.32298872	         -2.57612653	          8.46307546	        -23.87033484	          6.81397107	         34.60153096	         -0.43936870	          4.28523992	         -3.21898582	          0.04554480	          0.06039955	          0.00999999	          0.12246380	          0.05489245	          0.04836790	          0.01960175	          0.03838929	          0.01311840	          0.00999999	          0.02803139	          0.00999999	          0.00999999	          0.36046612	          0.14822109	          0.00999999	          0.00999999	          0.01992082	          0.09017956	          0.03575121	          0.04566168	          0.01856037	          0.15627628	          0.00999999	          0.00999999	          0.09575385	          0.12035506	          0.00999999	
          1.48350047	         -6.64450325	         -3.66167914	          9.53729055	          1.35982266	          0.87830490	         -0.01097386	         20.35261642	          2.42041882	          1.98029400	         -0.94450920	          3.10131350	          0.14546717	         -5.35221901	         -2.24045106	          7.14970004	        -27.25340570	          5.38102148	         34.47359337	         -0.29461017	          4.63737303	         -3.32278380	          0.04233530	          0.04914787	          0.00999999	          0.11898085	          0.04466668	          0.04962001	          0.01595019	          0.03646398	          0.01067461	          0.00999999	          0.02280949	          0.00999999	          0.00999999	          0.34453262	          0.14634397	          0.00999999	          0.00999999	          0.01620982	          0.10119840	          0.03399353	          0.04471993	          0.01510280	          0.13826228	          0.00999999	          0.00999999	          0.07791611	          0.09793442	          0.00999999	
          1.49723658	         -6.63414572	         -3.40658222	          8.91780847	          1.37426627	          0.88022183	         -0.00949517	         19.48245167	          2.57953728	          2.59119479	         -1.08057116	          3.17655119	          0.14667546	         -4.19720369	         -1.88384779	          5.76385659	        -30.83485167	          3.74270680	         33.69729604	         -0.19920232	          4.93818312	         -3.39834614	          0.03444877	          0.03999224	          0.00999999	          0.10907352	          0.03634583	          0.05105564	          0.01297888	          0.03465969	          0.00999999	          0.00999999	          0.01856037	          0.00999999	          0.00999999	          0.32960229	          0.14352933	          0.00999999	          0.00999999	          0.01319013	          0.11417715	          0.03145802	          0.05503571	          0.01228934	          0.12353553	          0.00999999	          0.00999999	          0.06340131	          0.07969046	          0.00999999	
